<?xml version="1.0" encoding="UTF-8" standalone="no"?>
<!DOCTYPE svg PUBLIC "-//W3C//DTD SVG 1.1//EN"
 "http://www.w3.org/Graphics/SVG/1.1/DTD/svg11.dtd">
<!-- Generated by graphviz version 13.1.2 (20250808.2320)
 -->
<!-- Title: G Pages: 1 -->
<svg width="677pt" height="633pt"
 viewBox="0.00 0.00 677.00 633.00" xmlns="http://www.w3.org/2000/svg" xmlns:xlink="http://www.w3.org/1999/xlink">
<g id="graph0" class="graph" transform="scale(1 1) rotate(0) translate(4 629.42)">
<title>G</title><style>.edge>path:hover{stroke-width:8}</style>
<polygon fill="white" stroke="none" points="-4,4 -4,-629.42 672.95,-629.42 672.95,4 -4,4"/>
<!-- crew_chief -->
<g id="node1" class="node">
<title>crew_chief</title><style>.edge>path:hover{stroke-width:8}</style>
<polygon fill="blue" stroke="black" points="168.61,-187.52 105.36,-187.52 105.36,-151.52 168.61,-151.52 168.61,-187.52"/>
<text xml:space="preserve" text-anchor="middle" x="136.98" y="-165.27" font-family="Helvetica,sans-Serif" font-size="10.00" fill="white">crew_chief</text>
</g>
<!-- crew_chief___main__ -->
<g id="node2" class="node">
<title>crew_chief___main__</title><style>.edge>path:hover{stroke-width:8}</style>
<ellipse fill="#ac4949" stroke="black" cx="233.98" cy="-20.51" rx="46.32" ry="20.51"/>
<text xml:space="preserve" text-anchor="middle" x="233.98" y="-21.51" font-family="Helvetica,sans-Serif" font-size="10.00" fill="#ffffff">crew_chief.</text>
<text xml:space="preserve" text-anchor="middle" x="233.98" y="-11.01" font-family="Helvetica,sans-Serif" font-size="10.00" fill="#ffffff">__main__</text>
</g>
<!-- crew_chief_agent -->
<g id="node3" class="node">
<title>crew_chief_agent</title><style>.edge>path:hover{stroke-width:8}</style>
<polygon fill="blue" stroke="black" points="108.73,-264.53 43.23,-264.53 43.23,-228.53 108.73,-228.53 108.73,-264.53"/>
<text xml:space="preserve" text-anchor="middle" x="75.98" y="-247.53" font-family="Helvetica,sans-Serif" font-size="10.00" fill="white">crew_chief.</text>
<text xml:space="preserve" text-anchor="middle" x="75.98" y="-237.03" font-family="Helvetica,sans-Serif" font-size="10.00" fill="white">agent</text>
</g>
<!-- crew_chief_agent&#45;&gt;crew_chief -->
<g id="edge1" class="edge">
<title>crew_chief_agent&#45;&gt;crew_chief</title><style>.edge>path:hover{stroke-width:8}</style>
<path fill="none" stroke="black" d="M90.13,-228.13C97.75,-218.76 107.31,-207.01 115.8,-196.57"/>
<polygon fill="blue" stroke="black" points="118.36,-198.96 121.96,-189 112.93,-194.55 118.36,-198.96"/>
</g>
<!-- crew_chief_cli -->
<g id="node4" class="node">
<title>crew_chief_cli</title><style>.edge>path:hover{stroke-width:8}</style>
<ellipse fill="#732626" stroke="black" cx="233.98" cy="-95.01" rx="43.86" ry="18"/>
<text xml:space="preserve" text-anchor="middle" x="233.98" y="-90.76" font-family="Helvetica,sans-Serif" font-size="10.00" fill="#ffffff">crew_chief.cli</text>
</g>
<!-- crew_chief_agent&#45;&gt;crew_chief_cli -->
<g id="edge2" class="edge">
<title>crew_chief_agent&#45;&gt;crew_chief_cli</title><style>.edge>path:hover{stroke-width:8}</style>
<path fill="none" stroke="black" d="M46.18,-228.21C25.99,-214.03 4.7,-192.76 14.98,-170.52"/>
</g>
<!-- crew_chief_listener -->
<g id="node8" class="node">
<title>crew_chief_listener</title><style>.edge>path:hover{stroke-width:8}</style>
<ellipse fill="#913030" stroke="black" cx="270.98" cy="-169.52" rx="46.32" ry="20.51"/>
<text xml:space="preserve" text-anchor="middle" x="270.98" y="-170.52" font-family="Helvetica,sans-Serif" font-size="10.00" fill="#ffffff">crew_chief.</text>
<text xml:space="preserve" text-anchor="middle" x="270.98" y="-160.02" font-family="Helvetica,sans-Serif" font-size="10.00" fill="#ffffff">listener</text>
</g>
<!-- crew_chief_agent&#45;&gt;crew_chief_listener -->
<g id="edge3" class="edge">
<title>crew_chief_agent&#45;&gt;crew_chief_listener</title><style>.edge>path:hover{stroke-width:8}</style>
<path fill="none" stroke="black" d="M109.06,-232.81C141.26,-220.42 190.43,-201.5 226.14,-187.77"/>
<polygon fill="blue" stroke="black" points="227.27,-191.08 235.35,-184.23 224.76,-184.55 227.27,-191.08"/>
</g>
<!-- crew_chief_cli&#45;&gt;crew_chief___main__ -->
<g id="edge4" class="edge">
<title>crew_chief_cli&#45;&gt;crew_chief___main__</title><style>.edge>path:hover{stroke-width:8}</style>
<path fill="none" stroke="black" d="M233.98,-76.83C233.98,-69.6 233.98,-60.96 233.98,-52.67"/>
<polygon fill="#732626" stroke="black" points="237.48,-52.9 233.98,-42.9 230.48,-52.9 237.48,-52.9"/>
</g>
<!-- crew_chief_client -->
<g id="node5" class="node">
<title>crew_chief_client</title><style>.edge>path:hover{stroke-width:8}</style>
<polygon fill="blue" stroke="black" points="352.73,-264.53 287.23,-264.53 287.23,-228.53 352.73,-228.53 352.73,-264.53"/>
<text xml:space="preserve" text-anchor="middle" x="319.98" y="-247.53" font-family="Helvetica,sans-Serif" font-size="10.00" fill="white">crew_chief.</text>
<text xml:space="preserve" text-anchor="middle" x="319.98" y="-237.03" font-family="Helvetica,sans-Serif" font-size="10.00" fill="white">client</text>
</g>
<!-- crew_chief_client&#45;&gt;crew_chief -->
<g id="edge5" class="edge">
<title>crew_chief_client&#45;&gt;crew_chief</title><style>.edge>path:hover{stroke-width:8}</style>
<path fill="none" stroke="black" d="M286.84,-231.95C256.77,-219.62 212.26,-201.37 179.56,-187.97"/>
<polygon fill="blue" stroke="black" points="180.94,-184.75 170.36,-184.2 178.28,-191.23 180.94,-184.75"/>
</g>
<!-- crew_chief_client&#45;&gt;crew_chief_cli -->
<g id="edge6" class="edge">
<title>crew_chief_client&#45;&gt;crew_chief_cli</title><style>.edge>path:hover{stroke-width:8}</style>
<path fill="none" stroke="black" d="M352.92,-230.01C355.97,-228.64 359.03,-227.29 361.98,-226.02 423.89,-199.49 518.03,-236.16 502.98,-170.52"/>
<path fill="none" stroke="black" d="M502.98,-168.52C493.26,-126.08 364.21,-107.48 288.45,-100.17"/>
<polygon fill="blue" stroke="black" points="289.01,-96.71 278.73,-99.27 288.37,-103.68 289.01,-96.71"/>
</g>
<!-- crew_chief_client&#45;&gt;crew_chief_listener -->
<g id="edge7" class="edge">
<title>crew_chief_client&#45;&gt;crew_chief_listener</title><style>.edge>path:hover{stroke-width:8}</style>
<path fill="none" stroke="black" d="M308.62,-228.13C302.98,-219.5 296.02,-208.85 289.63,-199.06"/>
<polygon fill="blue" stroke="black" points="292.72,-197.39 284.32,-190.93 286.86,-201.22 292.72,-197.39"/>
</g>
<!-- crew_chief_config_loader -->
<g id="node6" class="node">
<title>crew_chief_config_loader</title><style>.edge>path:hover{stroke-width:8}</style>
<ellipse fill="#ce3b3b" stroke="black" cx="422.98" cy="-246.53" rx="52.15" ry="20.51"/>
<text xml:space="preserve" text-anchor="middle" x="422.98" y="-247.53" font-family="Helvetica,sans-Serif" font-size="10.00" fill="#ffffff">crew_chief.</text>
<text xml:space="preserve" text-anchor="middle" x="422.98" y="-237.03" font-family="Helvetica,sans-Serif" font-size="10.00" fill="#ffffff">config_loader</text>
</g>
<!-- crew_chief_config_loader&#45;&gt;crew_chief_cli -->
<g id="edge8" class="edge">
<title>crew_chief_config_loader&#45;&gt;crew_chief_cli</title><style>.edge>path:hover{stroke-width:8}</style>
<path fill="none" stroke="black" d="M458.04,-230.89C482.3,-218.2 509.19,-197.61 502.98,-170.52"/>
</g>
<!-- crew_chief_config_loader&#45;&gt;crew_chief_listener -->
<g id="edge9" class="edge">
<title>crew_chief_config_loader&#45;&gt;crew_chief_listener</title><style>.edge>path:hover{stroke-width:8}</style>
<path fill="none" stroke="black" d="M391.49,-229.99C368.28,-218.54 336.53,-202.86 311.44,-190.48"/>
<polygon fill="#ce3b3b" stroke="black" points="313.02,-187.36 302.5,-186.07 309.92,-193.64 313.02,-187.36"/>
</g>
<!-- crew_chief_dispatcher -->
<g id="node7" class="node">
<title>crew_chief_dispatcher</title><style>.edge>path:hover{stroke-width:8}</style>
<ellipse fill="#db2f2f" stroke="black" cx="404.98" cy="-323.54" rx="46.32" ry="20.51"/>
<text xml:space="preserve" text-anchor="middle" x="404.98" y="-324.54" font-family="Helvetica,sans-Serif" font-size="10.00" fill="#ffffff">crew_chief.</text>
<text xml:space="preserve" text-anchor="middle" x="404.98" y="-314.04" font-family="Helvetica,sans-Serif" font-size="10.00" fill="#ffffff">dispatcher</text>
</g>
<!-- crew_chief_dispatcher&#45;&gt;crew_chief_cli -->
<g id="edge10" class="edge">
<title>crew_chief_dispatcher&#45;&gt;crew_chief_cli</title><style>.edge>path:hover{stroke-width:8}</style>
<path fill="none" stroke="black" d="M438.19,-308.89C462.17,-296.86 492.18,-276.66 502.98,-247.53"/>
</g>
<!-- crew_chief_dispatcher&#45;&gt;crew_chief_listener -->
<g id="edge11" class="edge">
<title>crew_chief_dispatcher&#45;&gt;crew_chief_listener</title><style>.edge>path:hover{stroke-width:8}</style>
<path fill="none" stroke="black" d="M368.91,-310.21C328.59,-295.46 267.78,-269.95 258.98,-247.53"/>
</g>
<!-- crew_chief_tools -->
<g id="node18" class="node">
<title>crew_chief_tools</title><style>.edge>path:hover{stroke-width:8}</style>
<polygon fill="blue" stroke="black" points="230.73,-264.53 165.23,-264.53 165.23,-228.53 230.73,-228.53 230.73,-264.53"/>
<text xml:space="preserve" text-anchor="middle" x="197.98" y="-247.53" font-family="Helvetica,sans-Serif" font-size="10.00" fill="white">crew_chief.</text>
<text xml:space="preserve" text-anchor="middle" x="197.98" y="-237.03" font-family="Helvetica,sans-Serif" font-size="10.00" fill="white">tools</text>
</g>
<!-- crew_chief_dispatcher&#45;&gt;crew_chief_tools -->
<g id="edge12" class="edge">
<title>crew_chief_dispatcher&#45;&gt;crew_chief_tools</title><style>.edge>path:hover{stroke-width:8}</style>
<path fill="none" stroke="black" d="M369.5,-309.9C363.01,-307.6 356.3,-305.24 349.98,-303.04 303.4,-286.79 291.12,-284.5 244.98,-267.04 243.85,-266.61 242.7,-266.17 241.54,-265.72"/>
<polygon fill="#db2f2f" stroke="black" points="243,-262.53 232.41,-262.1 240.42,-269.04 243,-262.53"/>
</g>
<!-- crew_chief_listener&#45;&gt;crew_chief_cli -->
<g id="edge13" class="edge">
<title>crew_chief_listener&#45;&gt;crew_chief_cli</title><style>.edge>path:hover{stroke-width:8}</style>
<path fill="none" stroke="black" d="M261.07,-149.09C256.99,-141.1 252.2,-131.7 247.78,-123.06"/>
<polygon fill="#913030" stroke="black" points="251.02,-121.69 243.35,-114.37 244.78,-124.87 251.02,-121.69"/>
</g>
<!-- crew_chief_model_output_utils -->
<g id="node9" class="node">
<title>crew_chief_model_output_utils</title><style>.edge>path:hover{stroke-width:8}</style>
<ellipse fill="#c24747" stroke="black" cx="149.98" cy="-323.54" rx="69.12" ry="20.51"/>
<text xml:space="preserve" text-anchor="middle" x="149.98" y="-324.54" font-family="Helvetica,sans-Serif" font-size="10.00" fill="#ffffff">crew_chief.</text>
<text xml:space="preserve" text-anchor="middle" x="149.98" y="-314.04" font-family="Helvetica,sans-Serif" font-size="10.00" fill="#ffffff">model_output_utils</text>
</g>
<!-- crew_chief_model_output_utils&#45;&gt;crew_chief_agent -->
<g id="edge14" class="edge">
<title>crew_chief_model_output_utils&#45;&gt;crew_chief_agent</title><style>.edge>path:hover{stroke-width:8}</style>
<path fill="none" stroke="black" d="M131.31,-303.61C122.15,-294.32 110.97,-283 101.07,-272.96"/>
<polygon fill="#c24747" stroke="black" points="103.71,-270.65 94.19,-265.99 98.72,-275.57 103.71,-270.65"/>
</g>
<!-- crew_chief_prompt_utils -->
<g id="node10" class="node">
<title>crew_chief_prompt_utils</title><style>.edge>path:hover{stroke-width:8}</style>
<ellipse fill="#ce3b3b" stroke="black" cx="619.98" cy="-604.92" rx="48.97" ry="20.51"/>
<text xml:space="preserve" text-anchor="middle" x="619.98" y="-605.92" font-family="Helvetica,sans-Serif" font-size="10.00" fill="#ffffff">crew_chief.</text>
<text xml:space="preserve" text-anchor="middle" x="619.98" y="-595.42" font-family="Helvetica,sans-Serif" font-size="10.00" fill="#ffffff">prompt_utils</text>
</g>
<!-- crew_chief_prompt_utils&#45;&gt;crew_chief_client -->
<g id="edge15" class="edge">
<title>crew_chief_prompt_utils&#45;&gt;crew_chief_client</title><style>.edge>path:hover{stroke-width:8}</style>
<path fill="none" stroke="black" d="M619.98,-547.41C589.31,-479.12 642.76,-442.17 600.98,-380.05 537.41,-285.49 474.44,-310.41 363.42,-267.36"/>
<polygon fill="#ce3b3b" stroke="black" points="364.87,-264.17 354.29,-263.69 362.26,-270.67 364.87,-264.17"/>
</g>
<!-- crew_chief_providers_prompt_utils -->
<g id="node17" class="node">
<title>crew_chief_providers_prompt_utils</title><style>.edge>path:hover{stroke-width:8}</style>
<polygon fill="blue" stroke="black" points="509.61,-503.23 440.36,-503.23 440.36,-463.73 509.61,-463.73 509.61,-503.23"/>
<text xml:space="preserve" text-anchor="middle" x="474.98" y="-489.73" font-family="Helvetica,sans-Serif" font-size="10.00" fill="white">crew_chief.</text>
<text xml:space="preserve" text-anchor="middle" x="474.98" y="-479.23" font-family="Helvetica,sans-Serif" font-size="10.00" fill="white">providers.</text>
<text xml:space="preserve" text-anchor="middle" x="474.98" y="-468.73" font-family="Helvetica,sans-Serif" font-size="10.00" fill="white">prompt_utils</text>
</g>
<!-- crew_chief_prompt_utils&#45;&gt;crew_chief_providers_prompt_utils -->
<g id="edge16" class="edge">
<title>crew_chief_prompt_utils&#45;&gt;crew_chief_providers_prompt_utils</title><style>.edge>path:hover{stroke-width:8}</style>
<path fill="none" stroke="black" d="M623.83,-584.08C625.04,-573.11 624.96,-559.49 619.98,-548.41"/>
<path fill="none" stroke="black" d="M619.98,-547.41C603.24,-510.14 556.93,-494.93 521.1,-488.74"/>
<polygon fill="#ce3b3b" stroke="black" points="521.8,-485.3 511.39,-487.25 520.74,-492.22 521.8,-485.3"/>
</g>
<!-- crew_chief_providers -->
<g id="node11" class="node">
<title>crew_chief_providers</title><style>.edge>path:hover{stroke-width:8}</style>
<polygon fill="blue" stroke="black" points="340.73,-341.54 275.23,-341.54 275.23,-305.54 340.73,-305.54 340.73,-341.54"/>
<text xml:space="preserve" text-anchor="middle" x="307.98" y="-324.54" font-family="Helvetica,sans-Serif" font-size="10.00" fill="white">crew_chief.</text>
<text xml:space="preserve" text-anchor="middle" x="307.98" y="-314.04" font-family="Helvetica,sans-Serif" font-size="10.00" fill="white">providers</text>
</g>
<!-- crew_chief_providers&#45;&gt;crew_chief -->
<g id="edge17" class="edge">
<title>crew_chief_providers&#45;&gt;crew_chief</title><style>.edge>path:hover{stroke-width:8}</style>
<path fill="none" stroke="black" d="M275.05,-314.56C235.27,-304.25 171.73,-285.45 155.98,-267.04 140.02,-248.38 136,-220.23 135.54,-199.14"/>
<polygon fill="blue" stroke="black" points="139.04,-199.2 135.6,-189.18 132.04,-199.15 139.04,-199.2"/>
</g>
<!-- crew_chief_providers&#45;&gt;crew_chief_agent -->
<g id="edge18" class="edge">
<title>crew_chief_providers&#45;&gt;crew_chief_agent</title><style>.edge>path:hover{stroke-width:8}</style>
<path fill="none" stroke="black" d="M274.91,-313.72C237.64,-303.52 175.42,-285.73 122.98,-267.04 121.86,-266.64 120.72,-266.22 119.58,-265.8"/>
<polygon fill="blue" stroke="black" points="121.2,-262.67 110.61,-262.35 118.69,-269.21 121.2,-262.67"/>
</g>
<!-- crew_chief_providers&#45;&gt;crew_chief_cli -->
<g id="edge19" class="edge">
<title>crew_chief_providers&#45;&gt;crew_chief_cli</title><style>.edge>path:hover{stroke-width:8}</style>
<path fill="none" stroke="black" d="M340.77,-306.66C343.86,-305.37 346.96,-304.14 349.98,-303.04 417.97,-278.33 477.83,-315.35 502.98,-247.53"/>
<path fill="none" stroke="black" d="M502.98,-245.53C514.58,-214.27 510.43,-203.01 502.98,-170.52"/>
</g>
<!-- crew_chief_providers&#45;&gt;crew_chief_listener -->
<g id="edge20" class="edge">
<title>crew_chief_providers&#45;&gt;crew_chief_listener</title><style>.edge>path:hover{stroke-width:8}</style>
<path fill="none" stroke="black" d="M293.67,-305.2C282.45,-290.68 267.39,-268.96 258.98,-247.53"/>
<path fill="none" stroke="black" d="M258.98,-245.53C253.4,-231.29 255.34,-214.55 259.13,-200.51"/>
<polygon fill="blue" stroke="black" points="262.34,-201.95 262.01,-191.36 255.67,-199.85 262.34,-201.95"/>
</g>
<!-- crew_chief_providers&#45;&gt;crew_chief_tools -->
<g id="edge21" class="edge">
<title>crew_chief_providers&#45;&gt;crew_chief_tools</title><style>.edge>path:hover{stroke-width:8}</style>
<path fill="none" stroke="black" d="M282.47,-305.14C267.62,-295.01 248.69,-282.11 232.51,-271.08"/>
<polygon fill="blue" stroke="black" points="234.84,-268.43 224.61,-265.69 230.9,-274.21 234.84,-268.43"/>
</g>
<!-- crew_chief_providers_anthropic -->
<g id="node12" class="node">
<title>crew_chief_providers_anthropic</title><style>.edge>path:hover{stroke-width:8}</style>
<polygon fill="blue" stroke="black" points="591.73,-419.55 526.23,-419.55 526.23,-380.05 591.73,-380.05 591.73,-419.55"/>
<text xml:space="preserve" text-anchor="middle" x="558.98" y="-406.05" font-family="Helvetica,sans-Serif" font-size="10.00" fill="white">crew_chief.</text>
<text xml:space="preserve" text-anchor="middle" x="558.98" y="-395.55" font-family="Helvetica,sans-Serif" font-size="10.00" fill="white">providers.</text>
<text xml:space="preserve" text-anchor="middle" x="558.98" y="-385.05" font-family="Helvetica,sans-Serif" font-size="10.00" fill="white">anthropic</text>
</g>
<!-- crew_chief_providers_anthropic&#45;&gt;crew_chief_cli -->
<g id="edge22" class="edge">
<title>crew_chief_providers_anthropic&#45;&gt;crew_chief_cli</title><style>.edge>path:hover{stroke-width:8}</style>
<path fill="none" stroke="black" d="M542.84,-379.69C520.65,-350.99 485.36,-295.05 502.98,-247.53"/>
</g>
<!-- crew_chief_providers_anthropic&#45;&gt;crew_chief_providers -->
<g id="edge23" class="edge">
<title>crew_chief_providers_anthropic&#45;&gt;crew_chief_providers</title><style>.edge>path:hover{stroke-width:8}</style>
<path fill="none" stroke="black" d="M525.76,-383.22C522.82,-382.07 519.87,-380.99 516.98,-380.05 448.06,-357.51 424.12,-367.21 351.73,-344.24"/>
<polygon fill="blue" stroke="black" points="353.21,-341.04 342.62,-341.25 351.03,-347.69 353.21,-341.04"/>
</g>
<!-- crew_chief_providers_base -->
<g id="node13" class="node">
<title>crew_chief_providers_base</title><style>.edge>path:hover{stroke-width:8}</style>
<ellipse fill="#f91010" stroke="black" cx="375.98" cy="-483.48" rx="46.32" ry="27.93"/>
<text xml:space="preserve" text-anchor="middle" x="375.98" y="-489.73" font-family="Helvetica,sans-Serif" font-size="10.00" fill="#ffffff">crew_chief.</text>
<text xml:space="preserve" text-anchor="middle" x="375.98" y="-479.23" font-family="Helvetica,sans-Serif" font-size="10.00" fill="#ffffff">providers.</text>
<text xml:space="preserve" text-anchor="middle" x="375.98" y="-468.73" font-family="Helvetica,sans-Serif" font-size="10.00" fill="#ffffff">base</text>
</g>
<!-- crew_chief_providers_base&#45;&gt;crew_chief_agent -->
<g id="edge24" class="edge">
<title>crew_chief_providers_base&#45;&gt;crew_chief_agent</title><style>.edge>path:hover{stroke-width:8}</style>
<path fill="none" stroke="black" d="M335.01,-469.9C303.84,-459.24 260.72,-442.1 226.98,-419.55 217.12,-412.96 217.38,-408.04 207.98,-400.8"/>
<path fill="none" stroke="black" d="M207.98,-398.8C156.38,-359.01 108.45,-398.04 71.98,-344.05 58.58,-324.21 61.37,-296.48 66.46,-275.83"/>
<polygon fill="#f91010" stroke="black" points="69.79,-276.92 69.12,-266.35 63.05,-275.03 69.79,-276.92"/>
</g>
<!-- crew_chief_providers_base&#45;&gt;crew_chief_providers -->
<g id="edge25" class="edge">
<title>crew_chief_providers_base&#45;&gt;crew_chief_providers</title><style>.edge>path:hover{stroke-width:8}</style>
<path fill="none" stroke="black" d="M364.6,-456.04C352.2,-427.23 332.44,-381.35 319.85,-352.1"/>
<polygon fill="#f91010" stroke="black" points="323.17,-350.97 316,-343.17 316.74,-353.74 323.17,-350.97"/>
</g>
<!-- crew_chief_providers_base&#45;&gt;crew_chief_providers_anthropic -->
<g id="edge26" class="edge">
<title>crew_chief_providers_base&#45;&gt;crew_chief_providers_anthropic</title><style>.edge>path:hover{stroke-width:8}</style>
<path fill="none" stroke="black" d="M411.05,-464.93C417.64,-461.74 424.5,-458.49 430.98,-455.55 465.77,-439.77 477.19,-436.47 515.62,-420.08"/>
<polygon fill="#f91010" stroke="black" points="516.81,-423.37 524.61,-416.21 514.04,-416.94 516.81,-423.37"/>
</g>
<!-- crew_chief_providers_cli -->
<g id="node14" class="node">
<title>crew_chief_providers_cli</title><style>.edge>path:hover{stroke-width:8}</style>
<polygon fill="blue" stroke="black" points="301.73,-419.55 236.23,-419.55 236.23,-380.05 301.73,-380.05 301.73,-419.55"/>
<text xml:space="preserve" text-anchor="middle" x="268.98" y="-406.05" font-family="Helvetica,sans-Serif" font-size="10.00" fill="white">crew_chief.</text>
<text xml:space="preserve" text-anchor="middle" x="268.98" y="-395.55" font-family="Helvetica,sans-Serif" font-size="10.00" fill="white">providers.</text>
<text xml:space="preserve" text-anchor="middle" x="268.98" y="-385.05" font-family="Helvetica,sans-Serif" font-size="10.00" fill="white">cli</text>
</g>
<!-- crew_chief_providers_base&#45;&gt;crew_chief_providers_cli -->
<g id="edge27" class="edge">
<title>crew_chief_providers_base&#45;&gt;crew_chief_providers_cli</title><style>.edge>path:hover{stroke-width:8}</style>
<path fill="none" stroke="black" d="M347.87,-461.02C334.16,-450.55 317.55,-437.87 303.11,-426.85"/>
<polygon fill="#f91010" stroke="black" points="305.27,-424.09 295.19,-420.81 301.02,-429.66 305.27,-424.09"/>
</g>
<!-- crew_chief_providers_ollama -->
<g id="node15" class="node">
<title>crew_chief_providers_ollama</title><style>.edge>path:hover{stroke-width:8}</style>
<polygon fill="blue" stroke="black" points="423.73,-419.55 358.23,-419.55 358.23,-380.05 423.73,-380.05 423.73,-419.55"/>
<text xml:space="preserve" text-anchor="middle" x="390.98" y="-406.05" font-family="Helvetica,sans-Serif" font-size="10.00" fill="white">crew_chief.</text>
<text xml:space="preserve" text-anchor="middle" x="390.98" y="-395.55" font-family="Helvetica,sans-Serif" font-size="10.00" fill="white">providers.</text>
<text xml:space="preserve" text-anchor="middle" x="390.98" y="-385.05" font-family="Helvetica,sans-Serif" font-size="10.00" fill="white">ollama</text>
</g>
<!-- crew_chief_providers_base&#45;&gt;crew_chief_providers_ollama -->
<g id="edge28" class="edge">
<title>crew_chief_providers_base&#45;&gt;crew_chief_providers_ollama</title><style>.edge>path:hover{stroke-width:8}</style>
<path fill="none" stroke="black" d="M380.98,-455.28C382.41,-447.49 383.98,-438.94 385.44,-430.98"/>
<polygon fill="#f91010" stroke="black" points="388.84,-431.84 387.21,-421.37 381.96,-430.58 388.84,-431.84"/>
</g>
<!-- crew_chief_providers_openai -->
<g id="node16" class="node">
<title>crew_chief_providers_openai</title><style>.edge>path:hover{stroke-width:8}</style>
<polygon fill="blue" stroke="black" points="507.73,-419.55 442.23,-419.55 442.23,-380.05 507.73,-380.05 507.73,-419.55"/>
<text xml:space="preserve" text-anchor="middle" x="474.98" y="-406.05" font-family="Helvetica,sans-Serif" font-size="10.00" fill="white">crew_chief.</text>
<text xml:space="preserve" text-anchor="middle" x="474.98" y="-395.55" font-family="Helvetica,sans-Serif" font-size="10.00" fill="white">providers.</text>
<text xml:space="preserve" text-anchor="middle" x="474.98" y="-385.05" font-family="Helvetica,sans-Serif" font-size="10.00" fill="white">openai</text>
</g>
<!-- crew_chief_providers_base&#45;&gt;crew_chief_providers_openai -->
<g id="edge29" class="edge">
<title>crew_chief_providers_base&#45;&gt;crew_chief_providers_openai</title><style>.edge>path:hover{stroke-width:8}</style>
<path fill="none" stroke="black" d="M402.77,-460.38C415.24,-450.09 430.17,-437.77 443.2,-427.02"/>
<polygon fill="#f91010" stroke="black" points="445.22,-429.89 450.7,-420.83 440.76,-424.49 445.22,-429.89"/>
</g>
<!-- crew_chief_providers_base&#45;&gt;crew_chief_tools -->
<g id="edge30" class="edge">
<title>crew_chief_providers_base&#45;&gt;crew_chief_tools</title><style>.edge>path:hover{stroke-width:8}</style>
<path fill="none" stroke="black" d="M207.98,-398.8C188.03,-382.28 223.47,-369.56 227.98,-344.05 231.16,-326.1 232.45,-320.71 227.98,-303.04 225.47,-293.11 220.8,-283.04 215.88,-274.25"/>
<polygon fill="#f91010" stroke="black" points="219.01,-272.68 210.87,-265.9 213.01,-276.28 219.01,-272.68"/>
</g>
<!-- crew_chief_providers_cli&#45;&gt;crew_chief_cli -->
<g id="edge31" class="edge">
<title>crew_chief_providers_cli&#45;&gt;crew_chief_cli</title><style>.edge>path:hover{stroke-width:8}</style>
<path fill="none" stroke="black" d="M235.82,-384.88C231.21,-383.15 226.51,-381.48 221.98,-380.05 156.64,-359.29 125.55,-386.84 71.98,-344.05 8.56,-293.38 -19.07,-244.21 14.98,-170.52"/>
<path fill="none" stroke="black" d="M14.98,-168.52C30.36,-137.92 122.89,-115.85 182.65,-104.57"/>
<polygon fill="blue" stroke="black" points="183.08,-108.05 192.28,-102.8 181.81,-101.16 183.08,-108.05"/>
</g>
<!-- crew_chief_providers_cli&#45;&gt;crew_chief_providers -->
<g id="edge32" class="edge">
<title>crew_chief_providers_cli&#45;&gt;crew_chief_providers</title><style>.edge>path:hover{stroke-width:8}</style>
<path fill="none" stroke="black" d="M279.03,-379.68C283.49,-371.18 288.82,-361.03 293.68,-351.77"/>
<polygon fill="blue" stroke="black" points="296.65,-353.64 298.2,-343.16 290.46,-350.39 296.65,-353.64"/>
</g>
<!-- crew_chief_providers_ollama&#45;&gt;crew_chief_cli -->
<g id="edge33" class="edge">
<title>crew_chief_providers_ollama&#45;&gt;crew_chief_cli</title><style>.edge>path:hover{stroke-width:8}</style>
<path fill="none" stroke="black" d="M423.96,-381.21C444.05,-368.46 467.92,-349.16 478.98,-324.54"/>
<path fill="none" stroke="black" d="M478.98,-322.54C493.34,-290.62 490.81,-280.35 502.98,-247.53"/>
</g>
<!-- crew_chief_providers_ollama&#45;&gt;crew_chief_providers -->
<g id="edge34" class="edge">
<title>crew_chief_providers_ollama&#45;&gt;crew_chief_providers</title><style>.edge>path:hover{stroke-width:8}</style>
<path fill="none" stroke="black" d="M369.61,-379.68C359.3,-370.45 346.81,-359.27 335.77,-349.4"/>
<polygon fill="blue" stroke="black" points="338.21,-346.89 328.43,-342.83 333.55,-352.11 338.21,-346.89"/>
</g>
<!-- crew_chief_providers_openai&#45;&gt;crew_chief_cli -->
<g id="edge35" class="edge">
<title>crew_chief_providers_openai&#45;&gt;crew_chief_cli</title><style>.edge>path:hover{stroke-width:8}</style>
<path fill="none" stroke="black" d="M472.34,-379.61C471.04,-364.07 471.15,-341.97 478.98,-324.54"/>
</g>
<!-- crew_chief_providers_openai&#45;&gt;crew_chief_providers -->
<g id="edge36" class="edge">
<title>crew_chief_providers_openai&#45;&gt;crew_chief_providers</title><style>.edge>path:hover{stroke-width:8}</style>
<path fill="none" stroke="black" d="M441.98,-384.03C438.94,-382.68 435.91,-381.34 432.98,-380.05 399.06,-365.12 388.32,-361.12 351.04,-344.47"/>
<polygon fill="blue" stroke="black" points="352.9,-341.47 342.34,-340.57 350.04,-347.86 352.9,-341.47"/>
</g>
<!-- crew_chief_providers_prompt_utils&#45;&gt;crew_chief_providers_anthropic -->
<g id="edge37" class="edge">
<title>crew_chief_providers_prompt_utils&#45;&gt;crew_chief_providers_anthropic</title><style>.edge>path:hover{stroke-width:8}</style>
<path fill="none" stroke="black" d="M494.47,-463.53C505.41,-452.89 519.26,-439.43 531.31,-427.7"/>
<polygon fill="blue" stroke="black" points="533.5,-430.46 538.23,-420.98 528.62,-425.44 533.5,-430.46"/>
</g>
<!-- crew_chief_providers_prompt_utils&#45;&gt;crew_chief_providers_cli -->
<g id="edge38" class="edge">
<title>crew_chief_providers_prompt_utils&#45;&gt;crew_chief_providers_cli</title><style>.edge>path:hover{stroke-width:8}</style>
<path fill="none" stroke="black" d="M445.66,-463.3C440.85,-460.51 435.85,-457.83 430.98,-455.55 392.33,-437.46 346.01,-422.43 312.81,-412.72"/>
<polygon fill="blue" stroke="black" points="314.12,-409.45 303.55,-410.05 312.19,-416.18 314.12,-409.45"/>
</g>
<!-- crew_chief_providers_prompt_utils&#45;&gt;crew_chief_providers_ollama -->
<g id="edge39" class="edge">
<title>crew_chief_providers_prompt_utils&#45;&gt;crew_chief_providers_ollama</title><style>.edge>path:hover{stroke-width:8}</style>
<path fill="none" stroke="black" d="M455.5,-463.53C444.55,-452.89 430.71,-439.43 418.65,-427.7"/>
<polygon fill="blue" stroke="black" points="421.35,-425.44 411.74,-420.98 416.47,-430.46 421.35,-425.44"/>
</g>
<!-- crew_chief_providers_prompt_utils&#45;&gt;crew_chief_providers_openai -->
<g id="edge40" class="edge">
<title>crew_chief_providers_prompt_utils&#45;&gt;crew_chief_providers_openai</title><style>.edge>path:hover{stroke-width:8}</style>
<path fill="none" stroke="black" d="M474.98,-463.53C474.98,-453.91 474.98,-441.99 474.98,-431.13"/>
<polygon fill="blue" stroke="black" points="478.48,-431.44 474.98,-421.44 471.48,-431.44 478.48,-431.44"/>
</g>
<!-- crew_chief_tools&#45;&gt;crew_chief -->
<g id="edge41" class="edge">
<title>crew_chief_tools&#45;&gt;crew_chief</title><style>.edge>path:hover{stroke-width:8}</style>
<path fill="none" stroke="black" d="M183.84,-228.13C176.21,-218.76 166.66,-207.01 158.17,-196.57"/>
<polygon fill="blue" stroke="black" points="161.03,-194.55 152.01,-189 155.6,-198.96 161.03,-194.55"/>
</g>
<!-- crew_chief_tools&#45;&gt;crew_chief_cli -->
<g id="edge42" class="edge">
<title>crew_chief_tools&#45;&gt;crew_chief_cli</title><style>.edge>path:hover{stroke-width:8}</style>
<path fill="none" stroke="black" d="M200.44,-228.28C203.38,-208.84 208.82,-176.39 215.98,-149.01 218.16,-140.71 220.97,-131.82 223.73,-123.74"/>
<polygon fill="blue" stroke="black" points="226.99,-125.03 227.02,-114.44 220.39,-122.7 226.99,-125.03"/>
</g>
<!-- crew_chief_tools&#45;&gt;crew_chief_listener -->
<g id="edge43" class="edge">
<title>crew_chief_tools&#45;&gt;crew_chief_listener</title><style>.edge>path:hover{stroke-width:8}</style>
<path fill="none" stroke="black" d="M214.92,-228.13C223.95,-218.84 235.27,-207.22 245.36,-196.85"/>
<polygon fill="blue" stroke="black" points="247.6,-199.56 252.07,-189.95 242.59,-194.68 247.6,-199.56"/>
</g>
</g>
</svg>
