<?plantuml 1.2026.2?><svg xmlns="http://www.w3.org/2000/svg" xmlns:xlink="http://www.w3.org/1999/xlink" contentStyleType="text/css" data-diagram-type="DESCRIPTION" height="1901px" preserveAspectRatio="none" style="width:511px;height:1901px;background:#FFFFFF;" version="1.1" viewBox="0 0 511 1901" width="511px" zoomAndPan="magnify"><title>crew-chief Shell Script Flow</title><defs/><g><g class="title" data-source-line="1"><text fill="#000000" font-family="Monospace" font-size="14" font-weight="bold" lengthAdjust="spacing" textLength="188.7368" x="154.2742" y="24.9659">crew-chief&#160;Shell&#160;Script&#160;Flow</text></g><!--entity shell_bootstrap_sh--><g class="entity" data-qualified-name="shell_bootstrap_sh" data-source-line="7" id="ent0002"><rect fill="#DBEAFE" height="77.2038" rx="2.5" ry="2.5" style="stroke:#181818;stroke-width:0.5;" width="139.3915" x="59.03" y="747.0679"/><text fill="#000000" font-family="Monospace" font-size="14" lengthAdjust="spacing" textLength="83.7197" x="69.03" y="772.0339">bootstrap.sh</text><text fill="#000000" font-family="Monospace" font-size="14" lengthAdjust="spacing" textLength="119.3915" x="69.03" y="791.1018">0&#160;local&#160;shell&#160;edges</text><text fill="#000000" font-family="Monospace" font-size="14" lengthAdjust="spacing" textLength="101.7516" x="69.03" y="810.1697">2&#160;external&#160;tools</text></g><!--entity shell_scripts_install_listener_systemd_sh--><g class="entity" data-qualified-name="shell_scripts_install_listener_systemd_sh" data-source-line="8" id="ent0003"><rect fill="#DBEAFE" height="77.2038" rx="2.5" ry="2.5" style="stroke:#181818;stroke-width:0.5;" width="243.4532" x="7" y="915.0679"/><text fill="#000000" font-family="Monospace" font-size="14" lengthAdjust="spacing" textLength="223.4532" x="17" y="940.0339">scripts/install_listener_systemd.sh</text><text fill="#000000" font-family="Monospace" font-size="14" lengthAdjust="spacing" textLength="119.3915" x="17" y="959.1018">0&#160;local&#160;shell&#160;edges</text><text fill="#000000" font-family="Monospace" font-size="14" lengthAdjust="spacing" textLength="101.7516" x="17" y="978.1697">5&#160;external&#160;tools</text></g><!--entity shell_scripts_install_ollama_systemd_sh--><g class="entity" data-qualified-name="shell_scripts_install_ollama_systemd_sh" data-source-line="9" id="ent0004"><rect fill="#DBEAFE" height="77.2038" rx="2.5" ry="2.5" style="stroke:#181818;stroke-width:0.5;" width="238.7352" x="9.36" y="1027.0679"/><text fill="#000000" font-family="Monospace" font-size="14" lengthAdjust="spacing" textLength="218.7352" x="19.36" y="1052.0339">scripts/install_ollama_systemd.sh</text><text fill="#000000" font-family="Monospace" font-size="14" lengthAdjust="spacing" textLength="119.3915" x="19.36" y="1071.1018">0&#160;local&#160;shell&#160;edges</text><text fill="#000000" font-family="Monospace" font-size="14" lengthAdjust="spacing" textLength="101.7516" x="19.36" y="1090.1697">6&#160;external&#160;tools</text></g><!--entity shell_scripts_pull_model_sh--><g class="entity" data-qualified-name="shell_scripts_pull_model_sh" data-source-line="10" id="ent0005"><rect fill="#DBEAFE" height="77.2038" rx="2.5" ry="2.5" style="stroke:#181818;stroke-width:0.5;" width="159.8875" x="48.78" y="1706.0679"/><text fill="#000000" font-family="Monospace" font-size="14" lengthAdjust="spacing" textLength="139.8875" x="58.78" y="1731.0339">scripts/pull_model.sh</text><text fill="#000000" font-family="Monospace" font-size="14" lengthAdjust="spacing" textLength="119.3915" x="58.78" y="1750.1018">0&#160;local&#160;shell&#160;edges</text><text fill="#000000" font-family="Monospace" font-size="14" lengthAdjust="spacing" textLength="101.7516" x="58.78" y="1769.1697">0&#160;external&#160;tools</text></g><!--entity shell_scripts_run_benchmark_sh--><g class="entity" data-qualified-name="shell_scripts_run_benchmark_sh" data-source-line="11" id="ent0006"><rect fill="#DBEAFE" height="77.2038" rx="2.5" ry="2.5" style="stroke:#181818;stroke-width:0.5;" width="191.5413" x="32.96" y="1321.0679"/><text fill="#000000" font-family="Monospace" font-size="14" lengthAdjust="spacing" textLength="171.5413" x="42.96" y="1346.0339">scripts/run_benchmark.sh</text><text fill="#000000" font-family="Monospace" font-size="14" lengthAdjust="spacing" textLength="119.3915" x="42.96" y="1365.1018">0&#160;local&#160;shell&#160;edges</text><text fill="#000000" font-family="Monospace" font-size="14" lengthAdjust="spacing" textLength="101.7516" x="42.96" y="1384.1697">4&#160;external&#160;tools</text></g><!--entity shell_scripts_run_listener_sh--><g class="entity" data-qualified-name="shell_scripts_run_listener_sh" data-source-line="12" id="ent0007"><rect fill="#DBEAFE" height="77.2038" rx="2.5" ry="2.5" style="stroke:#181818;stroke-width:0.5;" width="166.0194" x="45.72" y="1818.0679"/><text fill="#000000" font-family="Monospace" font-size="14" lengthAdjust="spacing" textLength="146.0194" x="55.72" y="1843.0339">scripts/run_listener.sh</text><text fill="#000000" font-family="Monospace" font-size="14" lengthAdjust="spacing" textLength="119.3915" x="55.72" y="1862.1018">0&#160;local&#160;shell&#160;edges</text><text fill="#000000" font-family="Monospace" font-size="14" lengthAdjust="spacing" textLength="101.7516" x="55.72" y="1881.1697">0&#160;external&#160;tools</text></g><!--entity shell_scripts_run_ollama_sh--><g class="entity" data-qualified-name="shell_scripts_run_ollama_sh" data-source-line="13" id="ent0008"><rect fill="#DBEAFE" height="77.2038" rx="2.5" ry="2.5" style="stroke:#181818;stroke-width:0.5;" width="161.3015" x="48.08" y="271.0679"/><text fill="#000000" font-family="Monospace" font-size="14" lengthAdjust="spacing" textLength="141.3015" x="58.08" y="296.0339">scripts/run_ollama.sh</text><text fill="#000000" font-family="Monospace" font-size="14" lengthAdjust="spacing" textLength="119.3915" x="58.08" y="315.1018">0&#160;local&#160;shell&#160;edges</text><text fill="#000000" font-family="Monospace" font-size="14" lengthAdjust="spacing" textLength="95.0456" x="58.08" y="334.1697">1&#160;external&#160;tool</text></g><!--entity shell_scripts_run_tachometer_profile_sh--><g class="entity" data-qualified-name="shell_scripts_run_tachometer_profile_sh" data-source-line="14" id="ent0009"><rect fill="#DBEAFE" height="77.2038" rx="2.5" ry="2.5" style="stroke:#181818;stroke-width:0.5;" width="242.2912" x="7.58" y="1531.0679"/><text fill="#000000" font-family="Monospace" font-size="14" lengthAdjust="spacing" textLength="222.2912" x="17.58" y="1556.0339">scripts/run_tachometer_profile.sh</text><text fill="#000000" font-family="Monospace" font-size="14" lengthAdjust="spacing" textLength="119.3915" x="17.58" y="1575.1018">0&#160;local&#160;shell&#160;edges</text><text fill="#000000" font-family="Monospace" font-size="14" lengthAdjust="spacing" textLength="101.7516" x="17.58" y="1594.1697">3&#160;external&#160;tools</text></g><!--entity shell_scripts_start_sh--><g class="entity" data-qualified-name="shell_scripts_start_sh" data-source-line="15" id="ent0010"><rect fill="#DBEAFE" height="77.2038" rx="2.5" ry="2.5" style="stroke:#181818;stroke-width:0.5;" width="139.3915" x="59.03" y="607.0679"/><text fill="#000000" font-family="Monospace" font-size="14" lengthAdjust="spacing" textLength="97.9577" x="69.03" y="632.0339">scripts/start.sh</text><text fill="#000000" font-family="Monospace" font-size="14" lengthAdjust="spacing" textLength="119.3915" x="69.03" y="651.1018">0&#160;local&#160;shell&#160;edges</text><text fill="#000000" font-family="Monospace" font-size="14" lengthAdjust="spacing" textLength="101.7516" x="69.03" y="670.1697">2&#160;external&#160;tools</text></g><!--entity shell_scripts_start_listener_sh--><g class="entity" data-qualified-name="shell_scripts_start_listener_sh" data-source-line="16" id="ent0011"><rect fill="#DBEAFE" height="77.2038" rx="2.5" ry="2.5" style="stroke:#181818;stroke-width:0.5;" width="173.3834" x="42.03" y="47.0679"/><text fill="#000000" font-family="Monospace" font-size="14" lengthAdjust="spacing" textLength="153.3834" x="52.03" y="72.0339">scripts/start_listener.sh</text><text fill="#000000" font-family="Monospace" font-size="14" lengthAdjust="spacing" textLength="119.3915" x="52.03" y="91.1018">0&#160;local&#160;shell&#160;edges</text><text fill="#000000" font-family="Monospace" font-size="14" lengthAdjust="spacing" textLength="101.7516" x="52.03" y="110.1697">2&#160;external&#160;tools</text></g><!--entity shell_scripts_status_sh--><g class="entity" data-qualified-name="shell_scripts_status_sh" data-source-line="17" id="ent0012"><rect fill="#DBEAFE" height="77.2038" rx="2.5" ry="2.5" style="stroke:#181818;stroke-width:0.5;" width="139.3915" x="59.03" y="383.0679"/><text fill="#000000" font-family="Monospace" font-size="14" lengthAdjust="spacing" textLength="107.5336" x="69.03" y="408.0339">scripts/status.sh</text><text fill="#000000" font-family="Monospace" font-size="14" lengthAdjust="spacing" textLength="119.3915" x="69.03" y="427.1018">0&#160;local&#160;shell&#160;edges</text><text fill="#000000" font-family="Monospace" font-size="14" lengthAdjust="spacing" textLength="95.0456" x="69.03" y="446.1697">1&#160;external&#160;tool</text></g><!--entity shell_scripts_stop_sh--><g class="entity" data-qualified-name="shell_scripts_stop_sh" data-source-line="18" id="ent0013"><rect fill="#DBEAFE" height="77.2038" rx="2.5" ry="2.5" style="stroke:#181818;stroke-width:0.5;" width="139.3915" x="59.03" y="495.0679"/><text fill="#000000" font-family="Monospace" font-size="14" lengthAdjust="spacing" textLength="96.3477" x="69.03" y="520.0339">scripts/stop.sh</text><text fill="#000000" font-family="Monospace" font-size="14" lengthAdjust="spacing" textLength="119.3915" x="69.03" y="539.1018">0&#160;local&#160;shell&#160;edges</text><text fill="#000000" font-family="Monospace" font-size="14" lengthAdjust="spacing" textLength="95.0456" x="69.03" y="558.1697">1&#160;external&#160;tool</text></g><!--entity shell_scripts_stop_listener_sh--><g class="entity" data-qualified-name="shell_scripts_stop_listener_sh" data-source-line="19" id="ent0014"><rect fill="#DBEAFE" height="77.2038" rx="2.5" ry="2.5" style="stroke:#181818;stroke-width:0.5;" width="171.7734" x="42.84" y="159.0679"/><text fill="#000000" font-family="Monospace" font-size="14" lengthAdjust="spacing" textLength="151.7734" x="52.84" y="184.0339">scripts/stop_listener.sh</text><text fill="#000000" font-family="Monospace" font-size="14" lengthAdjust="spacing" textLength="119.3915" x="52.84" y="203.1018">0&#160;local&#160;shell&#160;edges</text><text fill="#000000" font-family="Monospace" font-size="14" lengthAdjust="spacing" textLength="95.0456" x="52.84" y="222.1697">1&#160;external&#160;tool</text></g><!--entity tool_cat--><g class="entity" data-qualified-name="tool_cat" data-source-line="20" id="ent0015"><path d="M391.4782,798.142 C395.3619,788.032 402.2292,788.4369 408.9921,795.1433 C416.4759,788.451 420.8346,791.3105 424.4438,799.2383 C433.0592,802.3911 433.5473,807.8833 428.2419,814.5003 C434.1894,820.6574 433.8112,828.5545 424.3611,831.1152 C422.0383,840.9309 414.7567,841.9302 407.3982,836.8496 C399.5832,842.9414 394.3319,840.2164 391.9227,831.2822 C381.1625,830.0326 379.7503,824.5866 384.3737,815.8243 C378.664,807.7536 380.2107,799.3915 391.4782,798.142" fill="#FEF3C7" style="stroke:#181818;stroke-width:0.5;"/><text fill="#000000" font-family="Monospace" font-size="14" lengthAdjust="spacing" textLength="19.6279" x="397.56" y="819.0939">cat</text></g><!--entity tool_chmod--><g class="entity" data-qualified-name="tool_chmod" data-source-line="21" id="ent0016"><path d="M379.3223,1217.6678 C383.568,1210.7629 389.6093,1211.1095 394.1788,1217.3005 C398.5193,1210.561 403.3893,1211.1455 408.0634,1216.9308 C413.7184,1209.9798 419.2601,1209.6384 424.4319,1217.466 C429.9556,1210.3762 435.0656,1211.7059 439.2549,1218.8551 C449.1094,1220.2247 451.5528,1225.1918 447.9306,1234.1872 C451.9446,1242.9613 448.5423,1251.3503 437.5144,1250.5475 C434.5504,1258.8219 428.9532,1258.6239 423.2891,1253.3913 C419.9886,1260.5848 415.4426,1263.3787 408.997,1256.6109 C403.5425,1264.1326 396.7275,1264.1272 392.9651,1254.9831 C386.8448,1261.0558 380.6966,1259.584 378.8493,1250.8966 C371.0288,1248.2855 370.0956,1241.186 375.556,1235.6972 C369.3,1229.5771 370.5211,1220.6425 379.3223,1217.6678" fill="#FEF3C7" style="stroke:#181818;stroke-width:0.5;"/><text fill="#000000" font-family="Monospace" font-size="14" lengthAdjust="spacing" textLength="45.5418" x="384.6" y="1239.0939">chmod</text></g><!--entity tool_crew_chief--><g class="entity" data-qualified-name="tool_crew_chief" data-source-line="22" id="ent0017"><path d="M367.5842,71.1795 C370.2075,64.8629 376.5937,64.4013 380.7933,69.3274 C385.4642,61.7917 389.7433,63.4924 394.5027,69.2359 C398.7717,60.9785 403.7997,62.1227 409.3677,67.8557 C414.9915,62.5327 419.5949,62.0398 423.1352,70.013 C426.0065,63.7365 431.3674,64.2054 435.2085,68.9507 C439.8483,62.1383 446.0995,62.207 449.3645,70.2599 C460.5207,70.3745 462.0631,77.6059 458.4635,86.1631 C462.8722,95.4749 459.8404,100.827 450.04,103.0517 C446.855,108.7369 441.334,111.0034 437.0079,104.2469 C434.8147,113.056 427.1486,113.7496 421.8656,107.3165 C418.9473,114.0607 413.073,115.2405 408.673,108.7989 C402.9054,115.0362 396.9894,114.4684 394.3842,105.7729 C389.6705,111.7187 384.5278,112.0259 380.2716,105.2648 C375.7916,111.3625 369.7632,110.6837 367.0459,103.5084 C357.3758,101.6932 353.7641,94.3408 359.379,85.8784 C354.3938,78.199 358.5925,71.0568 367.5842,71.1795" fill="#FEF3C7" style="stroke:#181818;stroke-width:0.5;"/><text fill="#000000" font-family="Monospace" font-size="14" lengthAdjust="spacing" textLength="69.3137" x="372.71" y="91.0939">crew_chief</text></g><!--entity tool_grep--><g class="entity" data-qualified-name="tool_grep" data-source-line="23" id="ent0018"><path d="M386.2492,882.1246 C388.926,877.7161 393.4481,876.5753 396.6097,881.5916 C399.8403,874.616 403.7901,873.7014 409.3539,879.2098 C412.4921,874.4456 417.7402,875.6147 420.0112,880.1985 C424.3909,876.2343 428.2513,876.9167 430.5898,882.4679 C440.5074,885.2387 440.4025,891.6152 434.9052,898.5281 C441.7246,906.4069 438.8841,911.6064 430.3445,915.3117 C428.1851,921.4632 424.628,923.2822 419.0664,918.9834 C417.2857,923.8653 412.4878,925.9128 408.5285,921.4366 C402.6288,925.0056 398.6393,924.2929 396.2592,917.3346 C392.326,921.8984 387.1825,920.0868 385.6188,914.7803 C375.904,912.6587 373.3177,904.9205 380.668,897.8181 C374.9233,890.891 377.3803,883.8546 386.2492,882.1246" fill="#FEF3C7" style="stroke:#181818;stroke-width:0.5;"/><text fill="#000000" font-family="Monospace" font-size="14" lengthAdjust="spacing" textLength="30.8979" x="391.92" y="903.0939">grep</text></g><!--entity tool_inspect--><g class="entity" data-qualified-name="tool_inspect" data-source-line="24" id="ent0019"><path d="M378.5103,630.5958 C382.0062,624.306 388.9238,624.1092 393.0819,629.7897 C396.7497,622.5066 402.6978,621.7323 408.1496,627.7719 C413.5592,620.9064 421.4469,621.1558 424.2692,630.3661 C427.8651,623.8573 435.0248,622.3748 439.5262,629.3409 C450.3009,630.4395 454.3192,635.9974 448.315,645.9661 C453.2428,655.6051 449.1396,663.1942 438.0122,663.2788 C435.848,670.963 429.6546,672.3604 424.1372,666.7886 C421.9082,675.0118 416.6221,676.8626 409.3986,672.7619 C401.7507,678.5846 395.4247,677.7758 392.3396,667.8267 C385.3868,674.3771 378.7619,670.9505 377.0316,662.4979 C370.1024,657.5698 368.505,652.9617 376.4013,647.4141 C369.7073,641.346 370.6843,634.8431 378.5103,630.5958" fill="#FEF3C7" style="stroke:#181818;stroke-width:0.5;"/><text fill="#000000" font-family="Monospace" font-size="14" lengthAdjust="spacing" textLength="47.2498" x="383.75" y="651.0939">inspect</text></g><!--entity tool_ln--><g class="entity" data-qualified-name="tool_ln" data-source-line="25" id="ent0020"><path d="M395.6832,1302.7083 C397.4969,1295.5282 403.1491,1294.2876 408.0155,1299.7246 C414.2042,1293.1969 419.0175,1294.9313 421.7782,1302.9646 C429.6489,1307.4962 428.908,1313.2129 422.3363,1318.2711 C429.26,1323.0208 428.969,1330.2334 421.7013,1334.4252 C420.9736,1344.6235 416.2913,1346.8562 407.5747,1341.8456 C401.7519,1345.7134 395.4339,1343.892 395.3498,1335.9202 C383.5752,1335.17 379.6157,1327.3209 387.1302,1317.8141 C383.2609,1309.6426 386.3708,1303.4163 395.6832,1302.7083" fill="#FEF3C7" style="stroke:#181818;stroke-width:0.5;"/><text fill="#000000" font-family="Monospace" font-size="14" lengthAdjust="spacing" textLength="12.2639" x="401.24" y="1323.0939">ln</text></g><!--entity tool_loginctl--><g class="entity" data-qualified-name="tool_loginctl" data-source-line="26" id="ent0021"><path d="M378.3333,965.6504 C382.0908,959.1756 387.4016,957.7757 392.3259,964.4045 C397.9074,957.2719 402.4414,958.1167 407.426,965.0454 C412.6714,955.4769 418.4186,955.7992 424.4393,964.3162 C429.0877,958.0629 437.112,957.047 440.337,965.8219 C451.8699,965.6836 454.0614,974.7478 449.1448,983.0292 C454.5516,991.6895 449.4848,998.0493 440.3275,998.3007 C436.6273,1007.1237 429.5498,1008.6344 423.3757,1000.8215 C420.7468,1008.717 413.9914,1011.2329 407.9942,1004.3203 C403.1045,1011.4454 395.8224,1010.6896 392.7622,1002.5006 C386.3815,1009.754 379.5516,1007.4349 376.3203,999.1648 C365.8541,997.7853 363.5447,991.1648 368.8005,982.6336 C363.8083,973.925 368.1589,965.8459 378.3333,965.6504" fill="#FEF3C7" style="stroke:#181818;stroke-width:0.5;"/><text fill="#000000" font-family="Monospace" font-size="14" lengthAdjust="spacing" textLength="48.3418" x="383.2" y="987.0939">loginctl</text></g><!--entity tool_mkdir--><g class="entity" data-qualified-name="tool_mkdir" data-source-line="27" id="ent0022"><path d="M382.4013,1133.6853 C386.2259,1127.8492 391.5533,1127.8481 394.8787,1134.1965 C398.4058,1127.3331 403.9726,1127.6106 408.7047,1132.8161 C412.6426,1126.7831 416.8904,1127.3072 421.1856,1132.4159 C425.5327,1127.0738 430.7854,1126.6313 433.8907,1133.6884 C446.4944,1133.908 449.0308,1141.0973 444.6345,1151.5453 C449.2229,1160.2985 443.7285,1166.729 434.8193,1166.7943 C431.8807,1173.0577 428.0079,1175.3113 422.1634,1169.961 C419.3157,1176.6474 413.1246,1178.2915 407.8039,1172.9014 C402.3732,1177.4193 398.4874,1175.2675 396.415,1169.2657 C390.7331,1176.4877 384.3204,1174.5097 381.2683,1166.6284 C371.9184,1164.5654 367.5433,1160.0698 373.4015,1150.5608 C367.9452,1140.1265 372.2096,1135.7744 382.4013,1133.6853" fill="#FEF3C7" style="stroke:#181818;stroke-width:0.5;"/><text fill="#000000" font-family="Monospace" font-size="14" lengthAdjust="spacing" textLength="38.5699" x="388.09" y="1155.0939">mkdir</text></g><!--entity tool_podman--><g class="entity" data-qualified-name="tool_podman" data-source-line="28" id="ent0023"><path d="M374.3383,463.2841 C376.9609,457.4014 382.1962,456.7515 385.7927,462.3089 C388.4836,456.5122 391.8248,455.8456 396.2709,460.559 C399.5419,453.8809 405.452,454.3944 409.1295,460.1382 C412.6305,455.6817 417.0042,456.5659 418.9883,461.6978 C423.3579,454.8795 428.9558,456.5721 432.338,462.7147 C435.5859,457.9585 439.1781,457.1009 442.56,462.5809 C453.201,465.6421 454.4421,471.0483 448.1289,479.6432 C455.3812,487.4675 452.0797,494.026 442.4493,495.9813 C439.7326,501.7638 435.7853,501.9117 431.5552,497.6176 C429.9561,504.8892 424.7406,506.6909 419.1392,501.6551 C417.6068,506.561 412.8569,508.3462 409.2696,503.8011 C404.7602,508.3999 398.3857,507.3485 396.5099,500.7895 C391.0403,505.9639 387.6419,504.3649 384.6946,498.1686 C379.9503,502.8618 375.8095,502.7805 373.1475,496.0616 C365.0462,492.1036 361.8111,485.9098 370.0086,478.9602 C362.5561,472.4178 364.757,465.1217 374.3383,463.2841" fill="#FEF3C7" style="stroke:#181818;stroke-width:0.5;"/><text fill="#000000" font-family="Monospace" font-size="14" lengthAdjust="spacing" textLength="55.2858" x="379.73" y="483.0939">podman</text></g><!--entity tool_python3--><g class="entity" data-qualified-name="tool_python3" data-source-line="29" id="ent0024"><path d="M375.0234,1385.4108 C379.1131,1381.124 383.2139,1381.0213 386.2209,1386.6353 C388.4035,1380.9378 393.7935,1379.132 397.7857,1384.7927 C401.3595,1380.5651 404.5966,1380.7493 407.4242,1385.5861 C410.0898,1380.496 415.1156,1378.8693 418.9175,1384.3507 C422.8979,1378.5598 428.6066,1378.8376 431.8998,1385.0914 C435.5888,1380.4917 440.266,1380.5883 442.5484,1386.5144 C449.4484,1390.2526 451.0593,1396.7047 444.6067,1402.1956 C452.6633,1408.8198 452.316,1414.4719 442.5013,1418.8348 C440.8295,1424.6722 436.2671,1424.9347 432.2239,1421.449 C430.1131,1429.3677 424.757,1429.5037 419.1327,1425.2177 C417.6108,1431.0095 413.8103,1434.0608 408.1352,1429.7299 C401.9469,1433.7296 398.0946,1432.6409 396.1291,1425.2708 C392.2134,1428.6444 386.9145,1428.0335 385.7876,1422.1539 C381.1777,1426.491 377.1367,1425.8437 374.6453,1419.8655 C366.889,1416.5854 365.1433,1409.451 371.8359,1403.6652 C364.8264,1397.2812 365.2926,1388.8717 375.0234,1385.4108" fill="#FEF3C7" style="stroke:#181818;stroke-width:0.5;"/><text fill="#000000" font-family="Monospace" font-size="14" lengthAdjust="spacing" textLength="54.5858" x="380.08" y="1407.0939">python3</text></g><!--entity tool_rm--><g class="entity" data-qualified-name="tool_rm" data-source-line="30" id="ent0025"><path d="M393.1192,169.0177 C396.3826,160.3592 402.5268,159.3569 409.2515,165.1551 C415.6568,157.6269 422.5447,160.4974 425.4216,168.7667 C434.9675,171.554 434.4532,178.0171 428.9765,184.2528 C436.1919,190.7742 434.0641,197.2986 425.9612,201.074 C425.5566,213.9673 417.0944,215.8095 407.495,210.3012 C399.9968,214.3818 392.2956,211.795 392.2836,202.0592 C382.7682,199.7256 379.7774,192.997 387.0903,185.4133 C380.391,177.8633 384.8391,171.0596 393.1192,169.0177" fill="#FEF3C7" style="stroke:#181818;stroke-width:0.5;"/><text fill="#000000" font-family="Monospace" font-size="14" lengthAdjust="spacing" textLength="18.8719" x="397.93" y="189.0939">rm</text></g><!--entity tool_run--><g class="entity" data-qualified-name="tool_run" data-source-line="31" id="ent0026"><path d="M389.0402,1554.7606 C393.9118,1545.6193 402.2148,1544.0196 409.2751,1552.2043 C415.1387,1544.4404 423.4635,1546.1783 426.8627,1554.8425 C436.4523,1555.5513 442.1416,1560.3044 436.6544,1570.4637 C441.8885,1579.9102 438.3865,1585.33 428.013,1586.2128 C427.7746,1598.9375 421.4431,1603.9321 409.4497,1597.7609 C398.543,1602.7936 391.3806,1601.3076 390.6802,1587.5603 C381.0193,1586.7256 377.2311,1578.634 382.5839,1570.6227 C377.5285,1562.4957 379.9447,1557.1277 389.0402,1554.7606" fill="#FEF3C7" style="stroke:#181818;stroke-width:0.5;"/><text fill="#000000" font-family="Monospace" font-size="14" lengthAdjust="spacing" textLength="23.0859" x="395.83" y="1575.0939">run</text></g><!--entity tool_sed--><g class="entity" data-qualified-name="tool_sed" data-source-line="32" id="ent0027"><path d="M388.9702,714.7606 C393.8602,705.5932 402.1893,703.9918 409.2681,712.2043 C415.1481,704.4101 423.503,706.1497 426.9187,714.8425 C436.5083,715.5513 442.1976,720.3044 436.7104,730.4637 C441.9445,739.9102 438.4425,745.33 428.069,746.2128 C427.8107,758.9683 421.4561,763.9654 409.4427,757.7609 C398.5148,762.822 391.3318,761.3422 390.6102,747.5603 C380.9493,746.7256 377.1611,738.634 382.5139,730.6227 C377.4585,722.4957 379.8747,717.1277 388.9702,714.7606" fill="#FEF3C7" style="stroke:#181818;stroke-width:0.5;"/><text fill="#000000" font-family="Monospace" font-size="14" lengthAdjust="spacing" textLength="23.2119" x="395.76" y="735.0939">sed</text></g><!--entity tool_summarize--><g class="entity" data-qualified-name="tool_summarize" data-source-line="33" id="ent0028"><path d="M364.9062,1637.5982 C370.1005,1629.978 375.3379,1631.5517 379.7654,1638.3863 C383.3819,1631.2352 389.0894,1631.4695 393.1702,1637.9289 C398.0042,1630.4654 402.7709,1629.1954 408.9759,1636.4573 C413.0367,1629.0897 420.1365,1629.3557 423.7606,1636.8907 C428.3451,1630.0313 435.2365,1630.3084 438.4524,1638.2493 C442.0889,1632.4347 448.789,1631.8723 451.9517,1638.7531 C461.3194,1638.8238 465.4294,1646.6406 460.3393,1654.4412 C466.2839,1663.0543 462.6113,1669.0568 453.0164,1670.6489 C449.2344,1678.5005 441.6445,1678.4084 436.7262,1671.9418 C433.4199,1680.0589 428.1383,1679.5499 422.8795,1673.9065 C420.0874,1681.2874 413.2039,1680.7745 409.1446,1675.2559 C404.3156,1680.8327 399.3455,1681.8118 395.0081,1674.7079 C389.4502,1680.3758 383.1288,1679.6847 380.0319,1671.9565 C375.842,1679.6763 369.3519,1679.7164 365.4776,1671.6653 C354.9176,1670.8099 352.9851,1661.5076 358.4271,1654.1945 C353.1133,1647.0106 354.1792,1638.5198 364.9062,1637.5982" fill="#FEF3C7" style="stroke:#181818;stroke-width:0.5;"/><text fill="#000000" font-family="Monospace" font-size="14" lengthAdjust="spacing" textLength="73.2617" x="370.74" y="1659.0939">summarize</text></g><!--entity tool_systemctl--><g class="entity" data-qualified-name="tool_systemctl" data-source-line="34" id="ent0029"><path d="M369.5343,1049.3934 C372.9748,1043.4746 379.4993,1042.7928 382.6,1049.7383 C386.3416,1043.0276 391.3785,1042.9509 395.9123,1048.9055 C399.9441,1042.6584 404.4824,1043.151 408.9276,1048.439 C412.4715,1042.4049 416.1375,1042.9877 420.0813,1048.0366 C425.0421,1041.3773 429.5137,1042.3381 433.3266,1049.1641 C436.914,1043.8037 443.1525,1042.896 446.2065,1049.7275 C454.9028,1052.4602 457.8991,1060.6676 451.4198,1067.7822 C456.7552,1073.5869 454.972,1080.3689 447.3904,1082.6799 C444.821,1091.2185 439.2883,1091.8896 432.981,1086.565 C430.3189,1092.1651 426.1798,1092.9127 421.5265,1088.9501 C418.6641,1095.5731 413.3462,1097.5656 408.3994,1091.0295 C402.958,1096.5997 398.5252,1095.2714 396.0295,1088.1569 C391.6327,1093.4505 385.9129,1093.8254 382.9961,1086.6144 C378.0775,1090.6836 373.658,1091.4131 371.0984,1084.14 C360.3343,1081.0217 360.1923,1075.1542 366.0676,1067.1182 C359.2874,1059.86 359.5747,1053.3775 369.5343,1049.3934" fill="#FEF3C7" style="stroke:#181818;stroke-width:0.5;"/><text fill="#000000" font-family="Monospace" font-size="14" lengthAdjust="spacing" textLength="61.9778" x="376.38" y="1071.0939">systemctl</text></g><!--entity tool_tachometer--><g class="entity" data-qualified-name="tool_tachometer" data-source-line="35" id="ent0030"><path d="M363.7172,1469.5807 C366.4907,1464.5074 371.046,1464.8675 373.7774,1469.6238 C377.8584,1463.3992 383.2057,1464.8247 386.6626,1470.3106 C389.9805,1464.8244 393.2363,1464.3978 396.9778,1469.9135 C399.8686,1463.0095 404.4221,1462.9711 409.1558,1468.0388 C412.9708,1462.8014 417.3624,1464.9005 419.6433,1469.6499 C422.7761,1464.5205 426.8049,1464.306 430.326,1469.2374 C434.1674,1463.396 439.0707,1464.5184 442.1376,1470.0423 C445.206,1464.3388 449.8469,1465.6377 452.8223,1470.1397 C461.0508,1473.951 461.7321,1480.9647 454.5696,1486.4271 C462.59,1491.3906 462.071,1497.0723 454.7384,1502.2001 C451.5561,1507.602 447.2687,1508.3427 443.3412,1502.9898 C440.6829,1509.6554 435.6221,1509.9138 431.108,1504.9402 C427.1425,1510.3238 423.8246,1509.5877 420.1071,1504.6752 C417.6991,1510.3625 412.4353,1510.5048 409.4316,1505.2566 C406.0225,1509.9932 400.925,1510.4101 397.8093,1504.9232 C393.7847,1508.7021 389.0751,1508.9821 386.9426,1502.849 C383.943,1509.8678 377.8063,1509.1066 373.7672,1503.9763 C370.2231,1508.4539 364.597,1508.0896 362.2447,1502.5987 C353.4379,1501.4497 350.4825,1493.2043 355.3587,1486.2811 C350.6421,1476.8782 352.0616,1470.7894 363.7172,1469.5807" fill="#FEF3C7" style="stroke:#181818;stroke-width:0.5;"/><text fill="#000000" font-family="Monospace" font-size="14" lengthAdjust="spacing" textLength="76.4677" x="369.14" y="1491.0939">tachometer</text></g><g class="entity" data-qualified-name="shellGraphSummary" data-source-line="65" id="ent0059"><path d="M310.45,1713.1079 L310.45,1776.226 L504.2851,1776.226 L504.2851,1723.1079 L494.2851,1713.1079 L310.45,1713.1079" fill="#FEFFDD" style="stroke:#181818;stroke-width:0.5;"/><path d="M494.2851,1713.1079 L494.2851,1723.1079 L504.2851,1723.1079 L494.2851,1713.1079" fill="#FEFFDD" style="stroke:#181818;stroke-width:1;"/><text fill="#000000" font-family="Monospace" font-size="13" lengthAdjust="spacing" textLength="148.9671" x="316.45" y="1732.0049">Scanned&#160;13&#160;shell&#160;scripts.</text><text fill="#000000" font-family="Monospace" font-size="13" lengthAdjust="spacing" textLength="172.8351" x="316.45" y="1749.7109">Detected&#160;0&#160;local&#160;shell&#160;edges.</text><text fill="#000000" font-family="Monospace" font-size="13" lengthAdjust="spacing" textLength="163.8911" x="316.45" y="1767.417">Detected&#160;16&#160;external&#160;tools.</text></g><!--link shell_bootstrap_sh to tool_cat--><g class="link" data-entity-1="ent0002" data-entity-2="ent0015" data-link-type="dependency" data-source-line="36" id="lnk31"><path d="M198.68,806.6979 C258.49,806.6979 335.2,806.6979 376.21,806.6979" fill="none" id="shell_bootstrap_sh-to-tool_cat" style="stroke:#181818;stroke-width:1;"/><polygon fill="#181818" points="382.21,806.6979,373.21,802.6979,377.21,806.6979,373.21,810.6979,382.21,806.6979" style="stroke:#181818;stroke-width:1;"/></g><!--link shell_bootstrap_sh to tool_sed--><g class="link" data-entity-1="ent0002" data-entity-2="ent0027" data-link-type="dependency" data-source-line="37" id="lnk32"><path d="M198.68,750.6279 C257.68,750.6279 332.97,750.6279 374.53,750.6279" fill="none" id="shell_bootstrap_sh-to-tool_sed" style="stroke:#181818;stroke-width:1;"/><polygon fill="#181818" points="380.53,750.6279,371.53,746.6279,375.53,750.6279,371.53,754.6279,380.53,750.6279" style="stroke:#181818;stroke-width:1;"/></g><!--link shell_scripts_install_listener_systemd_sh to tool_cat--><g class="link" data-entity-1="ent0003" data-entity-2="ent0015" data-link-type="dependency" data-source-line="38" id="lnk33"><path d="M233.29,914.8779 C233.29,878.2579 233.29,828.9079 233.29,828.9079 C233.29,828.9079 327.78,828.9079 376.06,828.9079" fill="none" id="shell_scripts_install_listener_systemd_sh-to-tool_cat" style="stroke:#181818;stroke-width:1;"/><polygon fill="#181818" points="382.06,828.9079,373.06,824.9079,377.06,828.9079,373.06,832.9079,382.06,828.9079" style="stroke:#181818;stroke-width:1;"/></g><!--link shell_scripts_install_listener_systemd_sh to tool_grep--><g class="link" data-entity-1="ent0003" data-entity-2="ent0018" data-link-type="dependency" data-source-line="39" id="lnk34"><path d="M250.94,917.4379 C297.15,917.4379 339.91,917.4379 370.47,917.4379" fill="none" id="shell_scripts_install_listener_systemd_sh-to-tool_grep" style="stroke:#181818;stroke-width:1;"/><polygon fill="#181818" points="376.47,917.4379,367.47,913.4379,371.47,917.4379,367.47,921.4379,376.47,917.4379" style="stroke:#181818;stroke-width:1;"/></g><!--link shell_scripts_install_listener_systemd_sh to tool_loginctl--><g class="link" data-entity-1="ent0003" data-entity-2="ent0021" data-link-type="dependency" data-source-line="40" id="lnk35"><path d="M250.94,965.9179 C293.06,965.9179 331.29,965.9179 361.93,965.9179" fill="none" id="shell_scripts_install_listener_systemd_sh-to-tool_loginctl" style="stroke:#181818;stroke-width:1;"/><polygon fill="#181818" points="367.93,965.9179,358.93,961.9179,362.93,965.9179,358.93,969.9179,367.93,965.9179" style="stroke:#181818;stroke-width:1;"/></g><!--link shell_scripts_install_listener_systemd_sh to tool_mkdir--><g class="link" data-entity-1="ent0003" data-entity-2="ent0022" data-link-type="dependency" data-source-line="41" id="lnk36"><path d="M250.9,983.4879 C264.9,983.4879 274.29,983.4879 274.29,983.4879 C274.29,983.4879 274.29,1137.3979 274.29,1137.3979 C274.29,1137.3979 327.32,1137.3979 366.75,1137.3979" fill="none" id="shell_scripts_install_listener_systemd_sh-to-tool_mkdir" style="stroke:#181818;stroke-width:1;"/><polygon fill="#181818" points="372.75,1137.3979,363.75,1133.3979,367.75,1137.3979,363.75,1141.3979,372.75,1137.3979" style="stroke:#181818;stroke-width:1;"/></g><!--link shell_scripts_install_listener_systemd_sh to tool_systemctl--><g class="link" data-entity-1="ent0003" data-entity-2="ent0029" data-link-type="dependency" data-source-line="42" id="lnk37"><path d="M250.6,974.6979 C277.56,974.6979 298.29,974.6979 298.29,974.6979 C298.29,974.6979 298.29,1057.4879 298.29,1057.4879 C298.29,1057.4879 325.38,1057.4879 355.11,1057.4879" fill="none" id="shell_scripts_install_listener_systemd_sh-to-tool_systemctl" style="stroke:#181818;stroke-width:1;"/><polygon fill="#181818" points="361.11,1057.4879,352.11,1053.4879,356.11,1057.4879,352.11,1061.4879,361.11,1057.4879" style="stroke:#181818;stroke-width:1;"/></g><!--link shell_scripts_install_ollama_systemd_sh to tool_cat--><g class="link" data-entity-1="ent0004" data-entity-2="ent0015" data-link-type="dependency" data-source-line="43" id="lnk38"><path d="M248.5,1030.5779 C256.99,1030.5779 262.29,1030.5779 262.29,1030.5779 C262.29,1030.5779 262.29,833.5579 262.29,833.5579 C262.29,833.5579 334.53,833.5579 376.1,833.5579" fill="none" id="shell_scripts_install_ollama_systemd_sh-to-tool_cat" style="stroke:#181818;stroke-width:1;"/><polygon fill="#181818" points="382.1,833.5579,373.1,829.5579,377.1,833.5579,373.1,837.5579,382.1,833.5579" style="stroke:#181818;stroke-width:1;"/></g><!--link shell_scripts_install_ollama_systemd_sh to tool_chmod--><g class="link" data-entity-1="ent0004" data-entity-2="ent0016" data-link-type="dependency" data-source-line="44" id="lnk39"><path d="M232.29,1104.6279 C232.29,1154.2579 232.29,1233.6679 232.29,1233.6679 C232.29,1233.6679 311.89,1233.6679 363.38,1233.6679" fill="none" id="shell_scripts_install_ollama_systemd_sh-to-tool_chmod" style="stroke:#181818;stroke-width:1;"/><polygon fill="#181818" points="369.38,1233.6679,360.38,1229.6679,364.38,1233.6679,360.38,1237.6679,369.38,1233.6679" style="stroke:#181818;stroke-width:1;"/></g><!--link shell_scripts_install_ollama_systemd_sh to tool_grep--><g class="link" data-entity-1="ent0004" data-entity-2="ent0018" data-link-type="dependency" data-source-line="45" id="lnk40"><path d="M248.55,1034.0979 C270.32,1034.0979 286.29,1034.0979 286.29,1034.0979 C286.29,1034.0979 286.29,919.8179 286.29,919.8179 C286.29,919.8179 334.63,919.8179 370.5,919.8179" fill="none" id="shell_scripts_install_ollama_systemd_sh-to-tool_grep" style="stroke:#181818;stroke-width:1;"/><polygon fill="#181818" points="376.5,919.8179,367.5,915.8179,371.5,919.8179,367.5,923.8179,376.5,919.8179" style="stroke:#181818;stroke-width:1;"/></g><!--link shell_scripts_install_ollama_systemd_sh to tool_loginctl--><g class="link" data-entity-1="ent0004" data-entity-2="ent0021" data-link-type="dependency" data-source-line="46" id="lnk41"><path d="M248.48,1037.6179 C323.98,1037.6179 407.29,1037.6179 407.29,1037.6179 C407.29,1037.6179 407.29,1027.5879 407.29,1012.6979" fill="none" id="shell_scripts_install_ollama_systemd_sh-to-tool_loginctl" style="stroke:#181818;stroke-width:1;"/><polygon fill="#181818" points="407.29,1006.6979,403.29,1015.6979,407.29,1011.6979,411.29,1015.6979,407.29,1006.6979" style="stroke:#181818;stroke-width:1;"/></g><!--link shell_scripts_install_ollama_systemd_sh to tool_mkdir--><g class="link" data-entity-1="ent0004" data-entity-2="ent0022" data-link-type="dependency" data-source-line="47" id="lnk42"><path d="M240.29,1104.7179 C240.29,1126.6479 240.29,1149.6679 240.29,1149.6679 C240.29,1149.6679 317.81,1149.6679 366.75,1149.6679" fill="none" id="shell_scripts_install_ollama_systemd_sh-to-tool_mkdir" style="stroke:#181818;stroke-width:1;"/><polygon fill="#181818" points="372.75,1149.6679,363.75,1145.6679,367.75,1149.6679,363.75,1153.6679,372.75,1149.6679" style="stroke:#181818;stroke-width:1;"/></g><!--link shell_scripts_install_ollama_systemd_sh to tool_systemctl--><g class="link" data-entity-1="ent0004" data-entity-2="ent0029" data-link-type="dependency" data-source-line="48" id="lnk43"><path d="M248.51,1073.8479 C288.34,1073.8479 324.34,1073.8479 355.14,1073.8479" fill="none" id="shell_scripts_install_ollama_systemd_sh-to-tool_systemctl" style="stroke:#181818;stroke-width:1;"/><polygon fill="#181818" points="361.14,1073.8479,352.14,1069.8479,356.14,1073.8479,352.14,1077.8479,361.14,1073.8479" style="stroke:#181818;stroke-width:1;"/></g><!--link shell_scripts_run_benchmark_sh to tool_ln--><g class="link" data-entity-1="ent0006" data-entity-2="ent0020" data-link-type="dependency" data-source-line="49" id="lnk44"><path d="M224.62,1331.6279 C282.55,1331.6279 345.62,1331.6279 379.88,1331.6279" fill="none" id="shell_scripts_run_benchmark_sh-to-tool_ln" style="stroke:#181818;stroke-width:1;"/><polygon fill="#181818" points="385.88,1331.6279,376.88,1327.6279,380.88,1331.6279,376.88,1335.6279,385.88,1331.6279" style="stroke:#181818;stroke-width:1;"/></g><!--link shell_scripts_run_benchmark_sh to tool_mkdir--><g class="link" data-entity-1="ent0006" data-entity-2="ent0022" data-link-type="dependency" data-source-line="50" id="lnk45"><path d="M128.29,1320.5979 C128.29,1262.9779 128.29,1161.9379 128.29,1161.9379 C128.29,1161.9379 291.78,1161.9379 366.59,1161.9379" fill="none" id="shell_scripts_run_benchmark_sh-to-tool_mkdir" style="stroke:#181818;stroke-width:1;"/><polygon fill="#181818" points="372.59,1161.9379,363.59,1157.9379,367.59,1161.9379,363.59,1165.9379,372.59,1161.9379" style="stroke:#181818;stroke-width:1;"/></g><!--link shell_scripts_run_benchmark_sh to tool_python3--><g class="link" data-entity-1="ent0006" data-entity-2="ent0024" data-link-type="dependency" data-source-line="51" id="lnk46"><path d="M224.62,1387.6979 C272.32,1387.6979 321.57,1387.6979 358.72,1387.6979" fill="none" id="shell_scripts_run_benchmark_sh-to-tool_python3" style="stroke:#181818;stroke-width:1;"/><polygon fill="#181818" points="364.72,1387.6979,355.72,1383.6979,359.72,1387.6979,355.72,1391.6979,364.72,1387.6979" style="stroke:#181818;stroke-width:1;"/></g><!--link shell_scripts_run_benchmark_sh to tool_tachometer--><g class="link" data-entity-1="ent0006" data-entity-2="ent0030" data-link-type="dependency" data-source-line="52" id="lnk47"><path d="M128.29,1398.4979 C128.29,1435.5179 128.29,1485.6679 128.29,1485.6679 C128.29,1485.6679 266.85,1485.6679 347.89,1485.6679" fill="none" id="shell_scripts_run_benchmark_sh-to-tool_tachometer" style="stroke:#181818;stroke-width:1;"/><polygon fill="#181818" points="353.89,1485.6679,344.89,1481.6679,348.89,1485.6679,344.89,1489.6679,353.89,1485.6679" style="stroke:#181818;stroke-width:1;"/></g><!--link shell_scripts_run_ollama_sh to tool_podman--><g class="link" data-entity-1="ent0008" data-entity-2="ent0023" data-link-type="dependency" data-source-line="53" id="lnk48"><path d="M204.29,348.7479 C204.29,391.9479 204.29,455.5079 204.29,455.5079 C204.29,455.5079 298.69,455.5079 358.3,455.5079" fill="none" id="shell_scripts_run_ollama_sh-to-tool_podman" style="stroke:#181818;stroke-width:1;"/><polygon fill="#181818" points="364.3,455.5079,355.3,451.5079,359.3,455.5079,355.3,459.5079,364.3,455.5079" style="stroke:#181818;stroke-width:1;"/></g><!--link shell_scripts_run_tachometer_profile_sh to tool_run--><g class="link" data-entity-1="ent0009" data-entity-2="ent0026" data-link-type="dependency" data-source-line="54" id="lnk49"><path d="M250.13,1569.6679 C298.68,1569.6679 344.17,1569.6679 374.51,1569.6679" fill="none" id="shell_scripts_run_tachometer_profile_sh-to-tool_run" style="stroke:#181818;stroke-width:1;"/><polygon fill="#181818" points="380.51,1569.6679,371.51,1565.6679,375.51,1569.6679,371.51,1573.6679,380.51,1569.6679" style="stroke:#181818;stroke-width:1;"/></g><!--link shell_scripts_run_tachometer_profile_sh to tool_summarize--><g class="link" data-entity-1="ent0009" data-entity-2="ent0028" data-link-type="dependency" data-source-line="55" id="lnk50"><path d="M250.15,1601.2379 C311.16,1601.2379 372.29,1601.2379 372.29,1601.2379 C372.29,1601.2379 372.29,1609.1779 372.29,1622.6779" fill="none" id="shell_scripts_run_tachometer_profile_sh-to-tool_summarize" style="stroke:#181818;stroke-width:1;"/><polygon fill="#181818" points="372.29,1628.6779,376.29,1619.6779,372.29,1623.6779,368.29,1619.6779,372.29,1628.6779" style="stroke:#181818;stroke-width:1;"/></g><!--link shell_scripts_run_tachometer_profile_sh to tool_tachometer--><g class="link" data-entity-1="ent0009" data-entity-2="ent0030" data-link-type="dependency" data-source-line="56" id="lnk51"><path d="M250.3,1538.0979 C307.9,1538.0979 364.29,1538.0979 364.29,1538.0979 C364.29,1538.0979 364.29,1530.1579 364.29,1516.6579" fill="none" id="shell_scripts_run_tachometer_profile_sh-to-tool_tachometer" style="stroke:#181818;stroke-width:1;"/><polygon fill="#181818" points="364.29,1510.6579,360.29,1519.6579,364.29,1515.6579,368.29,1519.6579,364.29,1510.6579" style="stroke:#181818;stroke-width:1;"/></g><!--link shell_scripts_start_listener_sh to tool_crew_chief--><g class="link" data-entity-1="ent0011" data-entity-2="ent0017" data-link-type="dependency" data-source-line="57" id="lnk52"><path d="M215.75,85.6679 C262.37,85.6679 312.14,85.6679 351.46,85.6679" fill="none" id="shell_scripts_start_listener_sh-to-tool_crew_chief" style="stroke:#181818;stroke-width:1;"/><polygon fill="#181818" points="357.46,85.6679,348.46,81.6679,352.46,85.6679,348.46,89.6679,357.46,85.6679" style="stroke:#181818;stroke-width:1;"/></g><!--link shell_scripts_start_listener_sh to tool_rm--><g class="link" data-entity-1="ent0011" data-entity-2="ent0025" data-link-type="dependency" data-source-line="58" id="lnk53"><path d="M215.72,117.2379 C297.45,117.2379 407.29,117.2379 407.29,117.2379 C407.29,117.2379 407.29,134.0379 407.29,152.9279" fill="none" id="shell_scripts_start_listener_sh-to-tool_rm" style="stroke:#181818;stroke-width:1;"/><polygon fill="#181818" points="407.29,158.9279,411.29,149.9279,407.29,153.9279,403.29,149.9279,407.29,158.9279" style="stroke:#181818;stroke-width:1;"/></g><!--link shell_scripts_start_sh to tool_inspect--><g class="link" data-entity-1="ent0010" data-entity-2="ent0019" data-link-type="dependency" data-source-line="59" id="lnk54"><path d="M198.68,645.6679 C252.36,645.6679 318.49,645.6679 362.37,645.6679" fill="none" id="shell_scripts_start_sh-to-tool_inspect" style="stroke:#181818;stroke-width:1;"/><polygon fill="#181818" points="368.37,645.6679,359.37,641.6679,363.37,645.6679,359.37,649.6679,368.37,645.6679" style="stroke:#181818;stroke-width:1;"/></g><!--link shell_scripts_start_sh to tool_podman--><g class="link" data-entity-1="ent0010" data-entity-2="ent0023" data-link-type="dependency" data-source-line="60" id="lnk55"><path d="M198.66,614.0979 C281.18,614.0979 407.29,614.0979 407.29,614.0979 C407.29,614.0979 407.29,548.0779 407.29,508.6879" fill="none" id="shell_scripts_start_sh-to-tool_podman" style="stroke:#181818;stroke-width:1;"/><polygon fill="#181818" points="407.29,502.6879,403.29,511.6879,407.29,507.6879,411.29,511.6879,407.29,502.6879" style="stroke:#181818;stroke-width:1;"/></g><!--link shell_scripts_status_sh to tool_podman--><g class="link" data-entity-1="ent0012" data-entity-2="ent0023" data-link-type="dependency" data-source-line="61" id="lnk56"><path d="M198.68,457.8879 C250.75,457.8879 314.18,457.8879 358.34,457.8879" fill="none" id="shell_scripts_status_sh-to-tool_podman" style="stroke:#181818;stroke-width:1;"/><polygon fill="#181818" points="364.34,457.8879,355.34,453.8879,359.34,457.8879,355.34,461.8879,364.34,457.8879" style="stroke:#181818;stroke-width:1;"/></g><!--link shell_scripts_stop_listener_sh to tool_rm--><g class="link" data-entity-1="ent0014" data-entity-2="ent0025" data-link-type="dependency" data-source-line="62" id="lnk57"><path d="M214.98,183.6679 C273,183.6679 339.46,183.6679 376.72,183.6679" fill="none" id="shell_scripts_stop_listener_sh-to-tool_rm" style="stroke:#181818;stroke-width:1;"/><polygon fill="#181818" points="382.72,183.6679,373.72,179.6679,377.72,183.6679,373.72,187.6679,382.72,183.6679" style="stroke:#181818;stroke-width:1;"/></g><!--link shell_scripts_stop_sh to tool_podman--><g class="link" data-entity-1="ent0013" data-entity-2="ent0023" data-link-type="dependency" data-source-line="63" id="lnk58"><path d="M198.68,498.6279 C250.75,498.6279 314.18,498.6279 358.34,498.6279" fill="none" id="shell_scripts_stop_sh-to-tool_podman" style="stroke:#181818;stroke-width:1;"/><polygon fill="#181818" points="364.34,498.6279,355.34,494.6279,359.34,498.6279,355.34,502.6279,364.34,498.6279" style="stroke:#181818;stroke-width:1;"/></g><?plantuml-src fPTDSziW48Rl-XLCSawQrFsuTQPjufxQYw-PqH2qjfW0om2QrFtrHR8ii3wnVJFmxBxBWjYruqu0OGRUxrZ9OKis9GX1DinmxSXQu7icOEk8GsBuhdIau0QOuwWo-yQLfePAOajQu3jNExAbmaAqKi2MLiAjKRa_L0BvZGgjfYnc64gD2fJRkBsFfNPFrKx4YE0At5u3GUDAp3g4tBmYEkiCrVUsV54FH22ZmWTKRmAA7TWNzP70NmT6-Nc7AEmDeVP0v9rrRajo-_JZ-VlwEVPkcpJO3rnPHpqlk7MWmEHsxt_8ObhqyxHewpIVSfeO2mf19LsEv4jw9ASk5-BGbRUGM82OrdvOrWvk5lHCfV9NKAoKrBnDItvQbZpnbA1wFA2hzXaxIj0y7CMqukEfueJWyK0NvHnb9Khm7dDjSCi5J4klqZOxTBaGXx-3nbtq6Hzb6myfAWb7cYoNUAWUTfMzva0F7XPbK5ydWZf18Y61YLfZwMC2guBSCEeQgzeyzmDoktvUhtv-xTPB_sv4H3qSCBwovKrbYy1kha_l3EZ0rQC-uPzAxLCIe7QYpmaL4A46gxZZYZaHCUrCdvHllk06h1ds6Os5f97UOJoWzhvqgbM47IRwd941CNAmMaL2Vj1Vjn2TY1yCrYlfNrt-3oBgE3LWcpfqagPkgi-6roR0OQwZHyh-tTstxeRDhllTPEaLVCJjMMRrvRl4xdYHBh5jRjSbXjsnPAcDHK9wvepgJ_ryivcSpbWjP7J6SYwVCsPJsHpqBI54bOoEnJHDjsz4CXy-kMok6md-cwSgI-qUEZkFd6_KFJJdcqxkQzW3X4lQbPbq6oEpYPQcGzg2iyYDfZRq44jShpJFHOXwpA521rtD_-KVqtBJv7-VRHXLofU6nrNRCRIkxhCdds7c_D98Hn6jFlR_qznde0fIA_u7?></g></svg>
